<svg width="220" height="63" viewBox="0 0 220 63" fill="none" xmlns="http://www.w3.org/2000/svg">
<path d="M65.1753 37.2203C64.1703 36.7019 63.3976 35.9737 62.8522 35.0387C62.3068 34.1038 62.0349 33.0225 62.0349 31.7966V25.9006C62.0349 24.6747 62.3068 23.595 62.8522 22.6585C63.396 21.7235 64.1703 21 65.1753 20.4896C66.1786 19.9792 67.3441 19.7248 68.6718 19.7248C69.9995 19.7248 71.1348 19.9665 72.1302 20.4515C73.1256 20.9364 73.9 21.6265 74.4533 22.5185C75.0066 23.4122 75.2833 24.4457 75.2833 25.6192C75.2833 25.7718 75.1815 25.8656 74.9764 25.9006L71.9903 26.0787H71.9394C71.7693 26.0787 71.685 25.9849 71.685 25.7973C71.685 24.8957 71.4083 24.1722 70.855 23.6284C70.3016 23.0846 69.575 22.8111 68.6734 22.8111C67.7718 22.8111 67.0181 23.083 66.4648 23.6284C65.9115 24.1738 65.6348 24.8957 65.6348 25.7973V31.9492C65.6348 32.8349 65.9115 33.5488 66.4648 34.0926C67.0181 34.638 67.7543 34.9099 68.6734 34.9099C69.5925 34.9099 70.3032 34.638 70.855 34.0926C71.4083 33.5488 71.685 32.8333 71.685 31.9492C71.685 31.7616 71.7868 31.6678 71.9919 31.6678L74.978 31.795C75.0623 31.795 75.1354 31.8204 75.1943 31.8713C75.2531 31.9222 75.2833 31.9826 75.2833 32.0494C75.2833 33.2245 75.0066 34.2612 74.4533 35.1627C73.9 36.0643 73.1256 36.7624 72.1302 37.2553C71.1348 37.7482 69.982 37.9947 68.6718 37.9947C67.3616 37.9947 66.1786 37.7355 65.1753 37.2155V37.2203Z" fill="black"/>
<path d="M85.7984 25.0451C86.6666 25.4283 87.3424 25.9515 87.8273 26.6145C88.3123 27.2776 88.5556 28.0186 88.5556 28.8359V37.489C88.5556 37.5749 88.5254 37.6464 88.4666 37.7068C88.4061 37.7673 88.3346 37.7959 88.2503 37.7959H85.2642C85.1783 37.7959 85.1067 37.7657 85.0479 37.7068C84.9875 37.648 84.9589 37.5749 84.9589 37.489V36.6463C84.9589 36.5954 84.9414 36.562 84.908 36.5445C84.873 36.527 84.8396 36.5445 84.8062 36.5954C84.0907 37.5319 82.9427 37.9994 81.3606 37.9994C80.0328 37.9994 78.9611 37.6766 78.1439 37.0295C77.3266 36.3823 76.9179 35.4299 76.9179 34.1705C76.9179 32.9112 77.3774 31.8443 78.2965 31.1208C79.2156 30.3973 80.5258 30.0364 82.2271 30.0364H84.8301C84.9144 30.0364 84.9573 29.9934 84.9573 29.9092V29.3479C84.9573 28.7866 84.7871 28.3477 84.4469 28.0329C84.1066 27.718 83.5962 27.5606 82.9156 27.5606C82.3877 27.5606 81.9505 27.6544 81.6007 27.8421C81.2524 28.0297 81.0266 28.2936 80.9249 28.6339C80.874 28.8216 80.7627 28.9058 80.5925 28.8883L77.5046 28.4797C77.3011 28.4463 77.2073 28.37 77.2232 28.2507C77.2916 27.5352 77.5762 26.8896 78.0787 26.3108C78.5795 25.732 79.2442 25.2821 80.0694 24.9577C80.8947 24.6349 81.8185 24.4727 82.8393 24.4727C83.9444 24.4727 84.9318 24.6635 85.8 25.0467L85.7984 25.0451ZM84.1909 34.7318C84.7013 34.3407 84.9557 33.8382 84.9557 33.226V32.307C84.9557 32.2227 84.9128 32.1798 84.8285 32.1798H82.9904C82.2255 32.1798 81.6245 32.3245 81.1904 32.6139C80.7563 32.9033 80.5401 33.3119 80.5401 33.8398C80.5401 34.2993 80.7023 34.6603 81.0251 34.9242C81.3478 35.1882 81.7819 35.3201 82.3273 35.3201C83.0587 35.3201 83.6805 35.1246 84.1909 34.7334V34.7318Z" fill="black"/>
<path d="M99.0723 24.8543C99.209 24.9227 99.2599 25.0499 99.2249 25.2376L98.6891 28.1474C98.6716 28.3509 98.5523 28.4113 98.3313 28.3255C98.0769 28.2412 97.778 28.1983 97.4377 28.1983C97.301 28.1983 97.1149 28.2157 96.8764 28.2491C96.2642 28.3 95.7443 28.5258 95.3197 28.9249C94.8936 29.3256 94.6821 29.8567 94.6821 30.5198V37.4874C94.6821 37.5733 94.6519 37.6448 94.5931 37.7053C94.5327 37.7657 94.4611 37.7943 94.3768 37.7943H91.3907C91.3048 37.7943 91.2333 37.7641 91.1744 37.7053C91.114 37.6464 91.0854 37.5733 91.0854 37.4874V24.98C91.0854 24.8957 91.1156 24.8225 91.1744 24.7637C91.2333 24.7049 91.3064 24.6747 91.3907 24.6747H94.3768C94.4611 24.6747 94.5342 24.7049 94.5931 24.7637C94.6519 24.8241 94.6821 24.8957 94.6821 24.98V25.9499C94.6821 26.0008 94.6996 26.0358 94.733 26.0517C94.7664 26.0692 94.7918 26.0612 94.8093 26.0262C95.5074 25.0054 96.4423 24.495 97.6174 24.495C98.2296 24.495 98.7145 24.6143 99.0723 24.8528V24.8543Z" fill="black"/>
<path d="M112.954 31.2615C112.954 30.095 112.802 29.0838 112.499 28.2263L112.498 28.224L112.498 28.224C112.127 27.0622 111.518 26.1625 110.674 25.5186C109.831 24.875 108.831 24.5522 107.673 24.5522C106.436 24.5522 105.473 25.0097 104.775 25.9249L104.77 25.932L104.77 25.9316C104.725 25.9789 104.661 26.0114 104.59 25.9918C104.553 25.9824 104.523 25.9594 104.504 25.926C104.486 25.8948 104.48 25.8592 104.48 25.8259V24.9831C104.48 24.9205 104.459 24.8688 104.414 24.8227C104.37 24.7792 104.318 24.7573 104.254 24.7573H101.268C101.205 24.7573 101.152 24.7793 101.108 24.8231C101.064 24.8669 101.042 24.9197 101.042 24.9831V42.2369C101.042 42.3025 101.063 42.3536 101.108 42.3986C101.152 42.4425 101.203 42.4643 101.268 42.4643H104.254C104.317 42.4643 104.368 42.443 104.414 42.3985C104.458 42.3529 104.48 42.2998 104.48 42.2369V36.7751C104.48 36.742 104.485 36.7078 104.501 36.6764C104.517 36.6438 104.542 36.6188 104.574 36.6025M112.954 31.2615L104.611 36.6733M112.954 31.2615C112.954 32.4271 112.792 33.4816 112.473 34.4258C112.087 35.5016 111.478 36.3515 110.649 36.9788C109.823 37.6042 108.799 37.9199 107.571 37.9199C106.351 37.9199 105.439 37.5046 104.776 36.6766M112.954 31.2615L104.712 36.7242M104.574 36.6025C104.575 36.6024 104.575 36.6023 104.575 36.6022L104.611 36.6733M104.574 36.6025C104.574 36.6026 104.574 36.6028 104.574 36.6029L104.611 36.6733M104.574 36.6025C104.614 36.582 104.658 36.5823 104.697 36.6022C104.73 36.619 104.756 36.6475 104.776 36.6766M104.611 36.6733C104.644 36.6558 104.677 36.6733 104.712 36.7242M104.776 36.6766C104.775 36.6759 104.775 36.6752 104.774 36.6745L104.712 36.7242M104.776 36.6766C104.777 36.6775 104.777 36.6783 104.778 36.6791L104.712 36.7242M108.735 33.9591L108.735 33.9589C109.171 33.277 109.385 32.3587 109.385 31.2098C109.385 30.131 109.206 29.2654 108.84 28.6194C108.638 28.2429 108.373 27.9573 108.044 27.7662C107.715 27.575 107.327 27.4811 106.881 27.4811C106.477 27.4811 106.119 27.5757 105.812 27.7674C105.504 27.9587 105.251 28.244 105.05 28.619C104.683 29.2482 104.504 30.1241 104.504 31.2353C104.504 32.3469 104.692 33.2837 105.076 33.9308C105.481 34.6349 106.086 34.991 106.881 34.991C107.676 34.991 108.295 34.644 108.735 33.9591Z" fill="#1C75BC" stroke="#1C75BC" stroke-width="0.159007"/>
<path d="M122.798 37.7068C122.857 37.7657 122.928 37.7959 123.014 37.7959H126C126.084 37.7959 126.156 37.7673 126.216 37.7068C126.275 37.6464 126.305 37.5749 126.305 37.489V28.8359C126.305 28.0186 126.062 27.2776 125.577 26.6145C125.095 25.9555 124.424 25.4346 123.564 25.0521L123.518 25.1188M122.798 37.7068L117.819 24.9577C118.644 24.6349 119.568 24.4727 120.589 24.4727C121.688 24.4727 122.67 24.6612 123.534 25.0398L123.492 25.1014L123.494 25.103L123.546 25.0508L123.516 25.1179C123.517 25.1182 123.517 25.1184 123.518 25.1187C123.518 25.1187 123.518 25.1188 123.518 25.1188M122.798 37.7068C122.737 37.648 122.709 37.5749 122.709 37.489V36.6463C122.709 36.5954 122.691 36.562 122.658 36.5445L122.798 37.7068ZM123.518 25.1188C124.375 25.4971 125.038 26.0118 125.513 26.6615C125.988 27.311 126.226 28.0356 126.226 28.8359V37.489C126.226 37.5534 126.204 37.6051 126.16 37.651C126.115 37.6959 126.064 37.7164 126 37.7164H123.014C122.949 37.7164 122.898 37.6946 122.854 37.6506L122.853 37.6499C122.809 37.6072 122.788 37.5552 122.788 37.489V36.6463C122.788 36.5758 122.762 36.5094 122.695 36.4741L122.693 36.4734C122.654 36.4537 122.61 36.4532 122.57 36.4734C122.536 36.4905 122.511 36.5197 122.491 36.5492C121.795 37.4584 120.676 37.9199 119.11 37.9199C117.796 37.9199 116.743 37.6004 115.943 36.9671C115.149 36.3382 114.747 35.4112 114.747 34.1705C114.747 32.9317 115.198 31.8894 116.095 31.1833C116.995 30.4749 118.285 30.1159 119.977 30.1159H122.58C122.635 30.1159 122.69 30.1018 122.731 30.0606C122.773 30.0193 122.787 29.9639 122.787 29.9092V29.3479C122.787 28.7695 122.611 28.3075 122.251 27.9745C121.89 27.6409 121.357 27.4811 120.665 27.4811C120.128 27.4811 119.677 27.5765 119.313 27.772L119.313 27.7721C118.948 27.9684 118.707 28.2482 118.598 28.6111L118.598 28.6111L118.598 28.6131C118.575 28.6964 118.542 28.7466 118.505 28.7749C118.469 28.8021 118.421 28.8163 118.352 28.8094L115.266 28.401C115.17 28.3852 115.112 28.3609 115.082 28.3357C115.056 28.3149 115.047 28.2933 115.052 28.2612L115.052 28.2612L115.052 28.2583C115.119 27.5603 115.396 26.9301 115.888 26.363L115.889 26.3629C116.38 25.7954 117.033 25.3522 117.848 25.0317C118.663 24.713 119.577 24.5522 120.589 24.5522C121.685 24.5522 122.661 24.7414 123.518 25.1195L123.518 25.1188ZM121.989 34.7965L122.02 34.7727V34.7707C122.528 34.3687 122.785 33.8516 122.785 33.226V32.307C122.785 32.2522 122.771 32.1968 122.73 32.1556C122.688 32.1143 122.633 32.1003 122.578 32.1003H120.74C119.967 32.1003 119.348 32.2464 118.896 32.5477C118.439 32.8521 118.21 33.2858 118.21 33.8398C118.21 34.3206 118.381 34.7051 118.724 34.9858C119.065 35.2645 119.519 35.3997 120.077 35.3997C120.823 35.3997 121.463 35.1998 121.989 34.7965Z" fill="#1C75BC" stroke="#1C75BC" stroke-width="0.159007"/>
<path d="M136.743 24.9035V24.896C136.406 24.6842 135.949 24.5745 135.367 24.5745C134.221 24.5745 133.311 25.0693 132.627 26.0673C132.613 26.0937 132.589 26.1218 132.552 26.1342C132.512 26.1473 132.475 26.1368 132.447 26.1228C132.447 26.1225 132.446 26.1223 132.446 26.1221L132.483 26.0517L136.743 24.9035ZM136.743 24.9035L136.787 24.9255M136.743 24.9035L136.787 24.9255M136.787 24.9255C136.84 24.952 136.872 24.9871 136.889 25.0307C136.907 25.0761 136.912 25.1384 136.897 25.223L136.897 25.2232M136.787 24.9255L136.897 25.2232M136.897 25.2232L136.361 28.133L136.36 28.1329M136.897 25.2232L136.36 28.1329M136.36 28.1329L136.36 28.1406M136.36 28.1329L136.36 28.1406M136.36 28.1406C136.352 28.2305 136.324 28.2621 136.301 28.2738C136.272 28.2882 136.215 28.292 136.11 28.2514L136.11 28.2513M136.36 28.1406L136.11 28.2513M136.11 28.2513L136.106 28.25M136.11 28.2513L136.106 28.25M136.106 28.25C135.842 28.1625 135.534 28.1188 135.187 28.1188C135.046 28.1188 134.856 28.1368 134.617 28.1701C133.989 28.2227 133.453 28.4554 133.015 28.867L133.015 28.867M136.106 28.25L133.015 28.867M133.015 28.867C132.571 29.2849 132.352 29.8381 132.352 30.5198V37.4874C132.352 37.5518 132.331 37.6035 132.286 37.6494C132.241 37.6943 132.19 37.7148 132.127 37.7148H129.14C129.076 37.7148 129.024 37.693 128.98 37.649L128.98 37.6483M133.015 28.867L128.98 37.6483M128.98 37.6483C128.936 37.6056 128.915 37.5536 128.915 37.4874M128.98 37.6483L128.915 37.4874M128.915 37.4874V24.98M128.915 37.4874V24.98M128.915 24.98C128.915 24.9166 128.937 24.8637 128.98 24.8199M128.915 24.98L128.98 24.8199M128.98 24.8199C129.024 24.7762 129.077 24.7542 129.14 24.7542M128.98 24.8199L129.14 24.7542M129.14 24.7542H132.127M129.14 24.7542H132.127M132.127 24.7542C132.19 24.7542 132.243 24.776 132.286 24.8196L132.127 24.7542Z" fill="#1C75BC" stroke="#1C75BC" stroke-width="0.159007"/>
<path d="M145.706 34.8352C145.769 34.8352 145.822 34.857 145.865 34.9006C145.91 34.9466 145.932 34.9984 145.932 35.061V37.4858C145.932 37.5648 145.91 37.6181 145.876 37.6553C145.841 37.6928 145.785 37.7231 145.695 37.739C144.984 37.7722 144.475 37.7895 144.173 37.7895C142.767 37.7895 141.73 37.5563 141.051 37.1018C140.385 36.6555 140.031 35.8072 140.015 34.5262V27.6863C140.015 27.6315 140.001 27.5761 139.96 27.5348C139.918 27.4936 139.863 27.4795 139.808 27.4795H138.353C138.289 27.4795 138.237 27.4577 138.193 27.4138L138.192 27.413C138.149 27.3704 138.127 27.3183 138.127 27.2522V24.98C138.127 24.9166 138.149 24.8637 138.193 24.8199C138.237 24.7762 138.29 24.7542 138.353 24.7542H139.808C139.862 24.7542 139.918 24.7409 139.959 24.6997C140.001 24.6584 140.015 24.6026 140.015 24.5475V21.5104C140.015 21.4474 140.037 21.3942 140.081 21.3484C140.125 21.3049 140.177 21.2831 140.241 21.2831H143.1C143.163 21.2831 143.216 21.3049 143.259 21.3484C143.304 21.3943 143.325 21.446 143.325 21.5104V24.5475C143.325 24.6027 143.339 24.6584 143.381 24.6997C143.423 24.7409 143.478 24.7542 143.532 24.7542H145.982C146.046 24.7542 146.098 24.776 146.142 24.8196C146.187 24.8656 146.208 24.9173 146.208 24.98V27.2522C146.208 27.3168 146.186 27.3686 146.142 27.4145L146.122 27.4346C146.083 27.4653 146.039 27.4795 145.986 27.4795H143.535C143.48 27.4795 143.424 27.4934 143.383 27.5351C143.342 27.5767 143.329 27.6322 143.329 27.6863V33.0973C143.329 33.667 143.444 34.1059 143.692 34.3985C143.944 34.6947 144.339 34.8352 144.863 34.8352H145.706Z" fill="#1C75BC" stroke="#1C75BC" stroke-width="0.159007"/>
<path d="M158.886 28.8486C158.825 28.909 158.754 28.9376 158.67 28.9376H155.938C155.852 28.9376 155.78 28.9074 155.722 28.8486C155.661 28.7898 155.633 28.7166 155.633 28.6308C155.633 28.2571 155.442 27.9423 155.059 27.6863L158.886 28.8486ZM158.886 28.8486L158.83 28.7924C158.829 28.7925 158.829 28.7926 158.829 28.7928C158.829 28.7929 158.829 28.793 158.829 28.7931L158.886 28.8486ZM154.516 29.9958C154.753 30.0559 155.006 30.127 155.278 30.2109L155.279 30.2112C156.482 30.5671 157.424 31.0228 158.111 31.5755C158.786 32.1187 159.128 32.9109 159.128 33.9638C159.128 35.1984 158.642 36.1564 157.668 36.847C156.69 37.5404 155.368 37.8913 153.694 37.8913C152.562 37.8913 151.576 37.7301 150.736 37.4115L150.688 37.3933L150.687 37.3947C149.87 37.0772 149.238 36.6392 148.79 36.0843C148.334 35.5194 148.107 34.8819 148.107 34.169V33.9145C148.107 33.8515 148.129 33.7983 148.173 33.7525C148.217 33.709 148.269 33.6872 148.333 33.6872H151.166C151.229 33.6872 151.282 33.709 151.326 33.7525C151.37 33.7984 151.392 33.8501 151.392 33.9145V33.94C151.392 34.351 151.622 34.6911 152.054 34.9644C152.486 35.2383 153.025 35.3726 153.666 35.3726C154.254 35.3726 154.738 35.2563 155.113 35.0149L155.07 34.9481M154.516 29.9958L158.234 26.5337C157.793 25.9174 157.172 25.4362 156.366 25.0929C155.561 24.7496 154.619 24.5761 153.538 24.5761C151.933 24.5761 150.654 24.9422 149.694 25.6698L149.694 25.6699C148.735 26.3937 148.258 27.3701 148.258 28.6053C148.258 29.6081 148.574 30.3675 149.199 30.893L149.2 30.8931C149.835 31.4303 150.694 31.8857 151.777 32.2572L151.781 32.2587L151.781 32.2588C152.236 32.4444 152.861 32.6373 153.66 32.842C153.66 32.8421 153.66 32.8421 153.66 32.8422L153.64 32.9192M154.516 29.9958C154.516 29.9959 154.516 29.9959 154.516 29.9959L154.535 29.9187L154.516 29.9958C154.516 29.9958 154.516 29.9958 154.516 29.9958ZM155.07 34.9481C155.427 34.7191 155.606 34.4345 155.606 34.0926C155.606 33.7858 155.453 33.5568 155.146 33.4041C154.839 33.2515 154.338 33.0893 153.64 32.9192M155.07 34.9481C154.712 35.1786 154.244 35.2931 153.666 35.2931C153.036 35.2931 152.513 35.1612 152.096 34.8972C151.68 34.6333 151.471 34.3152 151.471 33.94V33.9145C151.471 33.8287 151.441 33.7571 151.382 33.6967L155.07 34.9481ZM153.64 32.9192C152.84 32.714 152.211 32.5201 151.751 32.3324L153.64 32.9192ZM153.877 29.8301C153.877 29.8302 153.878 29.8303 153.878 29.8305C153.879 29.8306 153.88 29.8307 153.88 29.8308L153.898 29.7533L153.877 29.8301ZM152.114 29.2889C152.114 29.2889 152.114 29.289 152.114 29.289C152.114 29.289 152.114 29.289 152.114 29.2891L152.149 29.2175L152.114 29.2889ZM152.161 27.6099L152.122 27.5408C152.122 27.5409 152.122 27.5409 152.122 27.541L152.161 27.6099Z" fill="#1C75BC" stroke="#1C75BC" stroke-width="0.159007"/>
<path d="M168.943 24.7382C169.002 24.7987 169.032 24.8702 169.032 24.9545V27.3793C169.032 27.4652 169.002 27.5368 168.943 27.5956C168.883 27.656 168.811 27.6846 168.727 27.6846H166.251C166.165 27.6846 166.124 27.7276 166.124 27.8118V37.4858C166.124 37.5717 166.094 37.6432 166.035 37.7036C165.974 37.7641 165.903 37.7927 165.819 37.7927H162.832C162.747 37.7927 162.675 37.7625 162.616 37.7036C162.556 37.6448 162.527 37.5717 162.527 37.4858V27.8118C162.527 27.7276 162.484 27.6846 162.4 27.6846H160.894C160.808 27.6846 160.737 27.6544 160.678 27.5956C160.617 27.5368 160.589 27.4636 160.589 27.3793V24.9545C160.589 24.8702 160.619 24.7971 160.678 24.7382C160.737 24.6794 160.81 24.6492 160.894 24.6492H162.4C162.484 24.6492 162.527 24.6063 162.527 24.522V23.9607C162.527 22.9065 162.689 22.0844 163.012 21.4977C163.335 20.9109 163.858 20.4943 164.581 20.2463C165.305 19.9998 166.304 19.8933 167.58 19.9267H168.55C168.635 19.9267 168.708 19.9569 168.767 20.0157C168.825 20.0762 168.856 20.1477 168.856 20.232V22.2991C168.856 22.3849 168.825 22.4565 168.767 22.5153C168.706 22.5757 168.635 22.6044 168.55 22.6044H167.708C167.111 22.6219 166.699 22.7443 166.469 22.9749C166.238 23.2038 166.124 23.6252 166.124 24.239V24.5204C166.124 24.6063 166.167 24.6476 166.251 24.6476H168.727C168.811 24.6476 168.884 24.6778 168.943 24.7366V24.7382Z" fill="black"/>
<path d="M172.452 36.8752C171.431 36.1263 170.733 35.1055 170.36 33.8128C170.121 33.013 170.002 32.1448 170.002 31.2098C170.002 30.2065 170.121 29.3049 170.36 28.5035C170.751 27.2442 171.457 26.2584 172.478 25.5428C173.499 24.8273 174.724 24.4711 176.154 24.4711C177.583 24.4711 178.741 24.8241 179.727 25.5301C180.714 26.2361 181.412 27.2188 181.819 28.4781C182.091 29.3288 182.228 30.2224 182.228 31.1589C182.228 32.0955 182.109 32.9366 181.87 33.7364C181.497 35.0641 180.802 36.1056 179.79 36.8625C178.778 37.6194 177.556 37.9978 176.128 37.9978C174.701 37.9978 173.475 37.6242 172.452 36.8752ZM177.556 34.3995C177.948 34.0592 178.229 33.5917 178.399 32.9955C178.536 32.4517 178.603 31.8554 178.603 31.2082C178.603 30.4943 178.534 29.8901 178.399 29.3956C178.211 28.8168 177.922 28.3668 177.531 28.0424C177.14 27.7196 176.663 27.5574 176.101 27.5574C175.54 27.5574 175.042 27.7196 174.659 28.0424C174.276 28.3652 173.999 28.8168 173.829 29.3956C173.693 29.8042 173.626 30.4084 173.626 31.2082C173.626 32.008 173.685 32.5693 173.804 32.9955C173.974 33.5917 174.259 34.0592 174.659 34.3995C175.058 34.7398 175.548 34.9099 176.127 34.9099C176.706 34.9099 177.165 34.7398 177.556 34.3995Z" fill="black"/>
<path d="M192.54 24.8543C192.676 24.9227 192.727 25.0499 192.692 25.2376L192.156 28.1474C192.139 28.3509 192.02 28.4113 191.799 28.3255C191.544 28.2412 191.245 28.1983 190.905 28.1983C190.768 28.1983 190.582 28.2157 190.344 28.2491C189.732 28.3 189.212 28.5258 188.787 28.9249C188.361 29.3256 188.149 29.8567 188.149 30.5198V37.4874C188.149 37.5733 188.119 37.6448 188.06 37.7053C188 37.7657 187.928 37.7943 187.844 37.7943H184.858C184.772 37.7943 184.701 37.7641 184.642 37.7053C184.581 37.6464 184.553 37.5733 184.553 37.4874V24.98C184.553 24.8957 184.583 24.8225 184.642 24.7637C184.701 24.7049 184.774 24.6747 184.858 24.6747H187.844C187.928 24.6747 188.002 24.7049 188.06 24.7637C188.119 24.8241 188.149 24.8957 188.149 24.98V25.9499C188.149 26.0008 188.167 26.0358 188.2 26.0517C188.234 26.0692 188.259 26.0612 188.277 26.0262C188.975 25.0054 189.91 24.495 191.085 24.495C191.697 24.495 192.182 24.6143 192.54 24.8528V24.8543Z" fill="black"/>
<path d="M202.074 24.7637C202.132 24.7049 202.206 24.6747 202.29 24.6747H205.276C205.36 24.6747 205.433 24.7049 205.492 24.7637C205.551 24.8242 205.581 24.8957 205.581 24.98V37.4874C205.581 37.5733 205.551 37.6449 205.492 37.7053C205.432 37.7657 205.36 37.7943 205.276 37.7943H202.29C202.204 37.7943 202.132 37.7641 202.074 37.7053C202.013 37.6464 201.985 37.5733 201.985 37.4874V36.6193C201.985 36.5684 201.967 36.5382 201.934 36.5302C201.899 36.5223 201.865 36.5429 201.832 36.5938C201.151 37.5129 200.096 37.9724 198.668 37.9724C197.375 37.9724 196.311 37.5813 195.476 36.7974C194.643 36.015 194.225 34.9179 194.225 33.5043V24.9784C194.225 24.8941 194.255 24.821 194.314 24.7621C194.373 24.7033 194.446 24.6731 194.53 24.6731H197.491C197.575 24.6731 197.648 24.7033 197.707 24.7621C197.766 24.8226 197.796 24.8941 197.796 24.9784V32.6107C197.796 33.2913 197.979 33.8446 198.345 34.2691C198.711 34.6953 199.216 34.9068 199.863 34.9068C200.442 34.9068 200.918 34.7319 201.293 34.3836C201.667 34.0354 201.897 33.5791 201.981 33.0178V24.9784C201.981 24.8941 202.012 24.821 202.07 24.7621L202.074 24.7637Z" fill="black"/>
<path d="M208.326 37.7052C208.265 37.6464 208.237 37.5732 208.237 37.4874V20.2336C208.237 20.1493 208.267 20.0762 208.326 20.0173C208.385 19.9585 208.458 19.9283 208.542 19.9283H211.528C211.612 19.9283 211.686 19.9585 211.744 20.0173C211.803 20.0777 211.833 20.1493 211.833 20.2336V28.8358C211.833 28.8867 211.851 28.9169 211.884 28.9249C211.918 28.9344 211.953 28.9217 211.986 28.8867L215.457 24.8543C215.576 24.7351 215.704 24.6762 215.84 24.6762H219.235C219.405 24.6762 219.49 24.7366 219.49 24.8543C219.49 24.9052 219.464 24.9736 219.413 25.0594L216.171 29.1682C216.136 29.2365 216.128 29.2954 216.146 29.3462L219.949 37.4381C219.983 37.5065 220 37.5573 220 37.5907C220 37.7275 219.906 37.7943 219.719 37.7943H216.58C216.41 37.7943 216.29 37.7179 216.222 37.5653L213.695 31.593C213.678 31.5596 213.648 31.5374 213.606 31.5294C213.563 31.5215 213.533 31.5342 213.517 31.5676L211.884 33.6092C211.849 33.6776 211.833 33.7285 211.833 33.7619V37.489C211.833 37.5748 211.803 37.6464 211.744 37.7068C211.684 37.7672 211.612 37.7959 211.528 37.7959H208.542C208.456 37.7959 208.385 37.7656 208.326 37.7068V37.7052Z" fill="black"/>
<path d="M29.3829 54.0718C24.98 54.0718 20.8426 52.9111 17.2602 50.8837V56.1484C20.9571 57.8291 25.0627 58.7657 29.3829 58.7657C40.8663 58.7657 50.8329 52.143 55.6635 42.5152H50.2811C45.9069 49.4527 38.1728 54.0718 29.3829 54.0718Z" fill="black"/>
<path d="M29.3828 4.69387C38.1727 4.69387 45.9052 9.31143 50.2795 16.2473H55.6635C50.8328 6.62104 40.8647 0 29.3828 0C13.1801 0 0 13.1801 0 29.3828C0 36.4109 2.4821 42.873 6.61786 47.9357V38.9344C5.3792 35.9943 4.69388 32.7665 4.69388 29.3812C4.69388 15.7671 15.7687 4.69229 29.3828 4.69229V4.69387Z" fill="black"/>
<path d="M44.3695 32.0261C43.4428 31.7311 42.4743 31.5772 41.4913 31.5772C38.8115 31.5772 36.296 32.6887 34.4052 34.6996L34.4052 34.6997C32.5242 36.7041 31.4881 39.3664 31.4881 42.194C31.4881 42.974 31.5714 43.7491 31.7283 44.5047L31.7437 44.5789L31.8186 44.567C31.9186 44.5511 32.0181 44.5351 32.1195 44.5158C33.9493 44.1871 35.6697 43.5304 37.2142 42.6136L37.216 42.6153L37.2692 42.5834C40.9994 40.3459 43.7087 36.574 44.5159 32.1464L44.5279 32.0806L44.4651 32.0575C44.4387 32.0477 44.4109 32.0391 44.386 32.0313C44.3803 32.0295 44.3748 32.0278 44.3695 32.0261ZM44.3695 32.0261L44.3454 32.1019L44.3694 32.0261C44.3694 32.0261 44.3695 32.0261 44.3695 32.0261ZM29.3654 9.36075C35.525 9.36075 41.0339 12.193 44.6624 16.6234L44.7069 16.7123L44.7265 16.6927C47.5837 20.1372 49.3017 24.407 49.3017 29.3781C49.3017 34.3811 47.4456 38.9564 44.3904 42.4598C40.735 46.6458 35.363 49.2953 29.3845 49.2953C24.8627 49.2953 20.6873 47.7812 17.3413 45.2315V38.9375C19.6757 41.8728 23.0574 43.9372 26.9167 44.5606L26.9917 44.5727L27.0072 44.4984C27.1642 43.7489 27.2443 42.977 27.2443 42.194C27.2443 39.3664 26.2098 36.7057 24.3288 34.6997L24.3288 34.6996C22.438 32.6887 19.9225 31.5772 17.2427 31.5772C16.162 31.5772 15.0988 31.7616 14.0918 32.1176L14.0376 32.1367L14.0388 32.1942C14.0396 32.2311 14.04 32.2676 14.0404 32.3049L14.0404 32.3058C14.0408 32.3425 14.0412 32.3799 14.042 32.4181C14.0579 33.5009 14.0769 34.7618 14.0976 36.0179C14.1034 36.3808 14.1092 36.7432 14.1149 37.1008C14.1406 38.7023 14.1647 40.2069 14.1803 41.2142L14.1803 41.2143L14.1954 42.1369L14.1995 42.3877L14.2006 42.453L14.2009 42.4696L14.2009 42.4738L14.2009 42.4739V42.4745V62.1875H9.66608L9.66609 44.1196L9.66607 44.1185L9.58658 44.1196C9.66607 44.1185 9.66607 44.1184 9.66607 44.1183L9.66606 44.1178L9.66603 44.1159L9.66593 44.1085L9.6655 44.0789L9.66384 43.9634L9.65753 43.5244L9.63501 41.95C9.61638 40.643 9.59154 38.8903 9.56669 37.1079C9.51699 33.5424 9.46732 29.8592 9.46732 29.3829C9.46732 28.499 9.52434 27.6296 9.63677 26.7792L9.63678 26.7791C10.0121 23.9142 10.9972 21.2378 12.4637 18.8892L12.4637 18.8892L12.4644 18.888C12.5164 18.8014 12.5715 18.7131 12.6267 18.628L12.6273 18.6271C16.1274 13.0633 22.3229 9.36075 29.3654 9.36075ZM44.6701 27.7068C44.1379 22.808 41.2988 18.594 37.2627 16.1791C34.9563 14.7949 32.2598 14.0006 29.3813 14.0006C21.794 14.0006 15.4728 19.5211 14.226 26.7551C14.1429 27.2203 14.0821 27.6968 14.0469 28.1782L14.0403 28.2685L14.1308 28.2633C15.0418 28.2109 16.1085 27.8996 17.2801 27.448C18.452 26.9963 19.7356 26.4015 21.0812 25.7779L21.0828 25.7772L21.0494 25.705L21.0828 25.7772C22.5876 25.0796 24.1152 24.3723 25.5519 23.8375C26.9897 23.3023 28.329 22.9431 29.4579 22.9367C29.458 22.9367 29.458 22.9367 29.4581 22.9367L29.4926 22.9367C30.7768 22.9367 32.2436 23.3006 33.7584 23.8291C35.2725 24.3573 36.8281 25.0476 38.29 25.6966L38.29 25.6966L38.3549 25.7254C39.9909 26.4503 41.5391 27.1362 42.8681 27.5272L42.8681 27.5272C43.4594 27.7008 43.9855 27.8102 44.454 27.8501L44.5068 27.8559C44.5377 27.8594 44.5649 27.861 44.5938 27.8626L44.687 27.8678L44.6773 27.775C44.6758 27.7608 44.6743 27.7466 44.6728 27.7323L44.6964 27.7088L44.6701 27.7068ZM26.4476 29.4974C26.4476 31.1043 27.7553 32.4135 29.3654 32.4135C30.9723 32.4135 32.2816 31.1059 32.2816 29.4974C32.2816 27.8889 30.974 26.5796 29.3654 26.5796C27.7568 26.5796 26.4476 27.8904 26.4476 29.4974Z" fill="#1C75BC" stroke="#1C75BC" stroke-width="0.159007"/>
</svg>
