<svg width="220" height="63" viewBox="0 0 220 63" fill="none" xmlns="http://www.w3.org/2000/svg">
<g clip-path="url(#clip0_132_2103)">
<path d="M64.9626 37.3193C63.961 36.8033 63.1908 36.0784 62.6471 35.1477C62.1035 34.217 61.8325 33.1406 61.8325 31.9203V26.0511C61.8325 24.8307 62.1035 23.756 62.6471 22.8237C63.1892 21.8929 63.961 21.1728 64.9626 20.6647C65.9627 20.1566 67.1244 19.9033 68.4478 19.9033C69.7712 19.9033 70.9028 20.1439 71.8949 20.6267C72.887 21.1094 73.6589 21.7964 74.2104 22.6844C74.7619 23.5739 75.0377 24.6028 75.0377 25.7709C75.0377 25.9229 74.9363 26.0163 74.7318 26.0511L71.7554 26.2284H71.7047C71.5351 26.2284 71.4511 26.135 71.4511 25.9482C71.4511 25.0507 71.1754 24.3305 70.6238 23.7892C70.0723 23.2479 69.348 22.9756 68.4494 22.9756C67.5508 22.9756 66.7995 23.2463 66.248 23.7892C65.6964 24.3321 65.4207 25.0507 65.4207 25.9482V32.0722C65.4207 32.9539 65.6964 33.6645 66.248 34.2059C66.7995 34.7488 67.5333 35.0195 68.4494 35.0195C69.3654 35.0195 70.0739 34.7488 70.6238 34.2059C71.1754 33.6645 71.4511 32.9523 71.4511 32.0722C71.4511 31.8854 71.5526 31.792 71.757 31.792L74.7334 31.9187C74.8174 31.9187 74.8903 31.944 74.9489 31.9946C75.0076 32.0453 75.0377 32.1054 75.0377 32.1719C75.0377 33.3416 74.7619 34.3737 74.2104 35.2711C73.6589 36.1686 72.887 36.8635 71.8949 37.3542C70.9028 37.8448 69.7537 38.0902 68.4478 38.0902C67.1419 38.0902 65.9627 37.8322 64.9626 37.3146V37.3193Z" fill="white"/>
<path d="M85.5198 25.1992C86.3851 25.5807 87.0587 26.1014 87.5421 26.7615C88.0255 27.4215 88.268 28.1591 88.268 28.9727V37.5865C88.268 37.672 88.2379 37.7432 88.1792 37.8034C88.119 37.8635 88.0477 37.892 87.9637 37.892H84.9873C84.9017 37.892 84.8304 37.862 84.7717 37.8034C84.7115 37.7448 84.683 37.672 84.683 37.5865V36.7476C84.683 36.697 84.6656 36.6637 84.6323 36.6463C84.5974 36.6289 84.5641 36.6463 84.5308 36.697C83.8176 37.6293 82.6734 38.0946 81.0964 38.0946C79.773 38.0946 78.7048 37.7733 77.8902 37.1291C77.0756 36.4849 76.6683 35.5368 76.6683 34.2832C76.6683 33.0295 77.1263 31.9674 78.0424 31.2473C78.9584 30.5271 80.2644 30.1678 81.9602 30.1678H84.5546C84.6386 30.1678 84.6814 30.125 84.6814 30.0411V29.4824C84.6814 28.9236 84.5118 28.4868 84.1727 28.1734C83.8335 27.86 83.3247 27.7033 82.6464 27.7033C82.1202 27.7033 81.6844 27.7967 81.3357 27.9834C80.9886 28.1702 80.7636 28.433 80.6622 28.7717C80.6114 28.9585 80.5005 29.0424 80.3309 29.0249L77.2531 28.6182C77.0502 28.5849 76.9567 28.5089 76.9726 28.3902C77.0407 27.6779 77.3244 27.0353 77.8252 26.4592C78.3245 25.883 78.9869 25.4351 79.8095 25.1122C80.632 24.7908 81.5529 24.6294 82.5703 24.6294C83.6718 24.6294 84.656 24.8193 85.5214 25.2008L85.5198 25.1992ZM83.9175 34.8419C84.4262 34.4525 84.6798 33.9523 84.6798 33.3429V32.4281C84.6798 32.3442 84.637 32.3014 84.553 32.3014H82.7209C81.9586 32.3014 81.3595 32.4455 80.9268 32.7335C80.4942 33.0216 80.2786 33.4284 80.2786 33.9539C80.2786 34.4114 80.4403 34.7707 80.762 35.0334C81.0837 35.2962 81.5164 35.4275 82.06 35.4275C82.7891 35.4275 83.4087 35.2329 83.9175 34.8435V34.8419Z" fill="white"/>
<path d="M98.7479 25.0096C98.8842 25.0776 98.9349 25.2043 98.9 25.391L98.3659 28.2876C98.3485 28.4902 98.2296 28.5504 98.0093 28.4649C97.7557 28.381 97.4578 28.3383 97.1186 28.3383C96.9823 28.3383 96.7969 28.3557 96.5592 28.3889C95.949 28.4396 95.4307 28.6644 95.0076 29.0617C94.5828 29.4605 94.372 29.9892 94.372 30.6492V37.5853C94.372 37.6707 94.3419 37.742 94.2833 37.8021C94.2231 37.8623 94.1517 37.8907 94.0677 37.8907H91.0914C91.0058 37.8907 90.9344 37.8607 90.8758 37.8021C90.8156 37.7435 90.787 37.6707 90.787 37.5853V25.1346C90.787 25.0507 90.8172 24.9779 90.8758 24.9194C90.9344 24.8608 91.0074 24.8307 91.0914 24.8307H94.0677C94.1517 24.8307 94.2246 24.8608 94.2833 24.9194C94.3419 24.9795 94.372 25.0507 94.372 25.1346V26.1002C94.372 26.1508 94.3895 26.1856 94.4227 26.2015C94.456 26.2189 94.4814 26.211 94.4988 26.1761C95.1946 25.1599 96.1265 24.6519 97.2977 24.6519C97.9079 24.6519 98.3913 24.7706 98.7479 25.008V25.0096Z" fill="white"/>
<path d="M112.667 31.3865C112.667 32.5547 112.506 33.6136 112.184 34.5633C111.794 35.6476 111.179 36.507 110.339 37.1418C109.499 37.7765 108.461 38.0946 107.223 38.0946C105.985 38.0946 105.052 37.672 104.374 36.8252C104.339 36.7745 104.306 36.7571 104.272 36.7745C104.237 36.7919 104.222 36.8252 104.222 36.8758V42.3129C104.222 42.3968 104.191 42.4696 104.133 42.5297C104.073 42.5883 104.001 42.6184 103.917 42.6184H100.941C100.855 42.6184 100.784 42.5883 100.725 42.5297C100.665 42.4696 100.637 42.3984 100.637 42.3129V25.1375C100.637 25.0536 100.667 24.9808 100.725 24.9222C100.784 24.8637 100.857 24.8336 100.941 24.8336H103.917C104.001 24.8336 104.074 24.8637 104.133 24.9222C104.191 24.9824 104.222 25.0536 104.222 25.1375V25.9764C104.222 26.027 104.239 26.0571 104.272 26.065C104.306 26.0745 104.34 26.0619 104.374 26.027C105.085 25.0948 106.069 24.6294 107.325 24.6294C108.494 24.6294 109.509 24.9555 110.364 25.6076C111.22 26.2597 111.835 27.1699 112.209 28.3396C112.515 29.2038 112.667 30.22 112.667 31.3881V31.3865ZM108.952 31.3359C108.952 30.2691 108.775 29.4222 108.418 28.7954C108.028 28.0673 107.401 27.7033 106.535 27.7033C105.756 27.7033 105.169 28.0673 104.779 28.7954C104.423 29.4048 104.245 30.2611 104.245 31.3612C104.245 32.4613 104.432 33.3778 104.805 34.0046C105.195 34.682 105.772 35.0207 106.535 35.0207C107.299 35.0207 107.892 34.6899 108.317 34.0299C108.74 33.3683 108.952 32.4708 108.952 31.3359Z" fill="#1C75BC"/>
<path d="M123.144 25.1992C124.01 25.5807 124.683 26.1014 125.167 26.7615C125.65 27.4215 125.893 28.1591 125.893 28.9727V37.5865C125.893 37.672 125.863 37.7432 125.804 37.8034C125.744 37.8635 125.672 37.892 125.588 37.892H122.612C122.526 37.892 122.455 37.862 122.396 37.8034C122.336 37.7448 122.308 37.672 122.308 37.5865V36.7476C122.308 36.697 122.29 36.6637 122.257 36.6463C122.222 36.6289 122.189 36.6463 122.155 36.697C121.442 37.6293 120.298 38.0946 118.721 38.0946C117.398 38.0946 116.329 37.7733 115.515 37.1291C114.7 36.4849 114.293 35.5368 114.293 34.2832C114.293 33.0295 114.751 31.9674 115.667 31.2473C116.583 30.5271 117.889 30.1678 119.585 30.1678H122.179C122.263 30.1678 122.306 30.125 122.306 30.0411V29.4824C122.306 28.9236 122.136 28.4868 121.797 28.1734C121.458 27.86 120.949 27.7033 120.271 27.7033C119.745 27.7033 119.309 27.7967 118.96 27.9834C118.613 28.1702 118.388 28.433 118.287 28.7717C118.236 28.9585 118.125 29.0424 117.956 29.0249L114.878 28.6182C114.675 28.5849 114.581 28.5089 114.597 28.3902C114.665 27.6779 114.949 27.0353 115.45 26.4592C115.949 25.883 116.612 25.4351 117.434 25.1122C118.257 24.7908 119.178 24.6294 120.195 24.6294C121.296 24.6294 122.281 24.8193 123.146 25.2008L123.144 25.1992ZM121.542 34.8419C122.051 34.4525 122.304 33.9523 122.304 33.3429V32.4281C122.304 32.3442 122.262 32.3014 122.178 32.3014H120.346C119.583 32.3014 118.984 32.4455 118.551 32.7335C118.119 33.0216 117.903 33.4284 117.903 33.9539C117.903 34.4114 118.065 34.7707 118.387 35.0334C118.708 35.2962 119.141 35.4275 119.685 35.4275C120.414 35.4275 121.033 35.2329 121.542 34.8435V34.8419Z" fill="#1C75BC"/>
<path d="M136.377 25.0096C136.513 25.0776 136.564 25.2043 136.529 25.391L135.995 28.2876C135.977 28.4902 135.858 28.5504 135.638 28.4649C135.385 28.381 135.087 28.3383 134.747 28.3383C134.611 28.3383 134.426 28.3557 134.188 28.3889C133.578 28.4396 133.06 28.6644 132.636 29.0617C132.212 29.4605 132.001 29.9892 132.001 30.6492V37.5853C132.001 37.6707 131.971 37.742 131.912 37.8021C131.852 37.8623 131.781 37.8907 131.697 37.8907H128.72C128.635 37.8907 128.563 37.8607 128.505 37.8021C128.444 37.7435 128.416 37.6707 128.416 37.5853V25.1346C128.416 25.0507 128.446 24.9779 128.505 24.9194C128.563 24.8608 128.636 24.8307 128.72 24.8307H131.697C131.781 24.8307 131.853 24.8608 131.912 24.9194C131.971 24.9795 132.001 25.0507 132.001 25.1346V26.1002C132.001 26.1508 132.018 26.1856 132.052 26.2015C132.085 26.2189 132.11 26.211 132.128 26.1761C132.823 25.1599 133.755 24.6519 134.927 24.6519C135.537 24.6519 136.02 24.7706 136.377 25.008V25.0096Z" fill="#1C75BC"/>
<path d="M145.727 27.614C145.667 27.6741 145.595 27.7026 145.511 27.7026H143.069C142.984 27.7026 142.942 27.7453 142.942 27.8292V33.2156C142.942 33.7744 143.056 34.1891 143.286 34.4597C143.516 34.7304 143.884 34.8665 144.393 34.8665H145.232C145.316 34.8665 145.389 34.8966 145.448 34.9552C145.507 35.0153 145.537 35.0866 145.537 35.1704V37.5843C145.537 37.771 145.435 37.8803 145.231 37.9151C144.519 37.9483 144.009 37.9657 143.705 37.9657C142.297 37.9657 141.245 37.7331 140.549 37.2677C139.853 36.8024 139.497 35.9255 139.481 34.6386V27.8292C139.481 27.7453 139.438 27.7026 139.354 27.7026H137.904C137.818 27.7026 137.747 27.6725 137.688 27.614C137.628 27.5554 137.6 27.4826 137.6 27.3971V25.1352C137.6 25.0513 137.63 24.9785 137.688 24.92C137.747 24.8614 137.82 24.8313 137.904 24.8313H139.354C139.438 24.8313 139.481 24.7902 139.481 24.7047V21.6815C139.481 21.5976 139.511 21.5248 139.57 21.4646C139.628 21.4061 139.701 21.376 139.785 21.376H142.635C142.719 21.376 142.792 21.4061 142.85 21.4646C142.909 21.5248 142.939 21.596 142.939 21.6815V24.7047C142.939 24.7902 142.982 24.8313 143.066 24.8313H145.508C145.592 24.8313 145.665 24.8614 145.724 24.92C145.782 24.9801 145.813 25.0513 145.813 25.1352V27.3971C145.813 27.4826 145.782 27.5538 145.724 27.614H145.727Z" fill="#1C75BC"/>
<path d="M150.218 37.5856C149.37 37.2643 148.712 36.8148 148.246 36.2386C147.78 35.6625 147.547 35.0103 147.547 34.2822V34.029C147.547 33.9451 147.578 33.8723 147.636 33.8121C147.695 33.7536 147.768 33.7235 147.852 33.7235H150.676C150.76 33.7235 150.833 33.7536 150.892 33.8121C150.95 33.8723 150.98 33.9435 150.98 34.029V34.0543C150.98 34.4279 151.188 34.7444 151.603 35.0072C152.018 35.2699 152.54 35.4013 153.167 35.4013C153.744 35.4013 154.21 35.2873 154.567 35.0578C154.923 34.8299 155.101 34.5466 155.101 34.2063C155.101 33.9008 154.949 33.6728 154.643 33.5209C154.337 33.3689 153.838 33.2075 153.142 33.0381C152.345 32.8339 151.717 32.6408 151.259 32.4541C150.174 32.0821 149.308 31.6246 148.665 31.0817C148.02 30.5404 147.698 29.7601 147.698 28.7439C147.698 27.4903 148.185 26.4947 149.161 25.7586C150.136 25.021 151.429 24.6538 153.041 24.6538C154.126 24.6538 155.076 24.8279 155.89 25.1746C156.705 25.5212 157.336 26.0087 157.786 26.6355C158.234 27.2623 158.459 27.9746 158.459 28.7692C158.459 28.8547 158.429 28.9259 158.371 28.986C158.31 29.0462 158.239 29.0747 158.155 29.0747H155.432C155.347 29.0747 155.275 29.0446 155.217 28.986C155.156 28.9275 155.128 28.8547 155.128 28.7692C155.128 28.3972 154.938 28.0838 154.556 27.829C154.174 27.5757 153.67 27.4475 153.042 27.4475C152.483 27.4475 152.025 27.5488 151.668 27.753C151.312 27.9556 151.134 28.2358 151.134 28.5919C151.134 28.9481 151.308 29.1855 151.655 29.3533C152.002 29.5226 152.584 29.6999 153.399 29.8867C153.586 29.9373 153.797 29.9927 154.034 30.0513C154.272 30.1114 154.526 30.1827 154.798 30.2666C156.003 30.6227 156.952 31.0801 157.648 31.6389C158.344 32.1976 158.691 33.0112 158.691 34.078C158.691 35.3317 158.195 36.3099 157.202 37.0126C156.21 37.7154 154.874 38.0668 153.196 38.0668C152.06 38.0668 151.067 37.9054 150.22 37.584L150.218 37.5856Z" fill="#1C75BC"/>
<path d="M168.391 24.8943C168.45 24.9544 168.48 25.0256 168.48 25.1095V27.5234C168.48 27.6088 168.45 27.6801 168.391 27.7386C168.331 27.7988 168.259 27.8273 168.175 27.8273H165.708C165.622 27.8273 165.581 27.87 165.581 27.9539V37.5839C165.581 37.6694 165.551 37.7406 165.492 37.8008C165.432 37.8609 165.361 37.8894 165.277 37.8894H162.3C162.215 37.8894 162.143 37.8593 162.085 37.8008C162.025 37.7422 161.996 37.6694 161.996 37.5839V27.9539C161.996 27.87 161.953 27.8273 161.869 27.8273H160.368C160.283 27.8273 160.211 27.7972 160.153 27.7386C160.093 27.6801 160.064 27.6072 160.064 27.5234V25.1095C160.064 25.0256 160.094 24.9528 160.153 24.8943C160.211 24.8357 160.284 24.8056 160.368 24.8056H161.869C161.953 24.8056 161.996 24.7629 161.996 24.679V24.1202C161.996 23.0708 162.158 22.2525 162.479 21.6684C162.801 21.0844 163.323 20.6697 164.044 20.4227C164.765 20.1774 165.76 20.0713 167.033 20.1046H168C168.084 20.1046 168.156 20.1347 168.215 20.1932C168.274 20.2534 168.304 20.3246 168.304 20.4085V22.4662C168.304 22.5517 168.274 22.6229 168.215 22.6814C168.155 22.7416 168.084 22.7701 168 22.7701H167.16C166.565 22.7875 166.155 22.9094 165.925 23.1389C165.695 23.3668 165.581 23.7863 165.581 24.3972V24.6774C165.581 24.7629 165.624 24.804 165.708 24.804H168.175C168.259 24.804 168.332 24.8341 168.391 24.8927V24.8943Z" fill="white"/>
<path d="M171.889 36.9762C170.872 36.2306 170.176 35.2145 169.803 33.9276C169.566 33.1314 169.447 32.2672 169.447 31.3365C169.447 30.3377 169.566 29.4403 169.803 28.6425C170.193 27.3889 170.897 26.4075 171.915 25.6953C172.932 24.983 174.154 24.6284 175.579 24.6284C177.004 24.6284 178.157 24.9798 179.14 25.6826C180.124 26.3854 180.82 27.3636 181.226 28.6172C181.497 29.464 181.633 30.3536 181.633 31.2859C181.633 32.2181 181.514 33.0555 181.276 33.8516C180.904 35.1733 180.211 36.2101 179.203 36.9635C178.194 37.7169 176.977 38.0937 175.553 38.0937C174.13 38.0937 172.908 37.7217 171.889 36.9762ZM176.977 34.5117C177.367 34.173 177.647 33.7076 177.817 33.114C177.953 32.5727 178.019 31.9791 178.019 31.3349C178.019 30.6242 177.951 30.0227 177.817 29.5305C177.63 28.9543 177.341 28.5064 176.951 28.1835C176.561 27.8622 176.086 27.7007 175.526 27.7007C174.967 27.7007 174.471 27.8622 174.089 28.1835C173.707 28.5048 173.431 28.9543 173.262 29.5305C173.125 29.9373 173.059 30.5387 173.059 31.3349C173.059 32.1311 173.117 32.6898 173.236 33.114C173.406 33.7076 173.69 34.173 174.089 34.5117C174.487 34.8504 174.975 35.0198 175.552 35.0198C176.129 35.0198 176.587 34.8504 176.977 34.5117Z" fill="white"/>
<path d="M191.912 25.0096C192.048 25.0776 192.099 25.2043 192.064 25.391L191.53 28.2876C191.512 28.4902 191.393 28.5504 191.173 28.4649C190.92 28.381 190.622 28.3383 190.282 28.3383C190.146 28.3383 189.961 28.3557 189.723 28.3889C189.113 28.4396 188.594 28.6644 188.171 29.0617C187.747 29.4605 187.536 29.9892 187.536 30.6492V37.5853C187.536 37.6707 187.506 37.742 187.447 37.8021C187.387 37.8623 187.316 37.8907 187.232 37.8907H184.255C184.17 37.8907 184.098 37.8607 184.04 37.8021C183.979 37.7435 183.951 37.6707 183.951 37.5853V25.1346C183.951 25.0507 183.981 24.9779 184.04 24.9194C184.098 24.8608 184.171 24.8307 184.255 24.8307H187.232C187.316 24.8307 187.388 24.8608 187.447 24.9194C187.506 24.9795 187.536 25.0507 187.536 25.1346V26.1002C187.536 26.1508 187.553 26.1856 187.587 26.2015C187.62 26.2189 187.645 26.211 187.663 26.1761C188.358 25.1599 189.29 24.6519 190.461 24.6519C191.072 24.6519 191.555 24.7706 191.912 25.008V25.0096Z" fill="white"/>
<path d="M201.415 24.9198C201.474 24.8612 201.547 24.8312 201.631 24.8312H204.607C204.691 24.8312 204.764 24.8612 204.823 24.9198C204.882 24.98 204.912 25.0512 204.912 25.1351V37.5857C204.912 37.6712 204.882 37.7424 204.823 37.8026C204.763 37.8627 204.691 37.8912 204.607 37.8912H201.631C201.545 37.8912 201.474 37.8611 201.415 37.8026C201.355 37.744 201.327 37.6712 201.327 37.5857V36.7215C201.327 36.6708 201.309 36.6408 201.276 36.6328C201.241 36.6249 201.208 36.6455 201.175 36.6962C200.496 37.611 199.444 38.0685 198.021 38.0685C196.732 38.0685 195.672 37.6791 194.84 36.8988C194.009 36.12 193.592 35.0278 193.592 33.6207V25.1335C193.592 25.0496 193.623 24.9768 193.681 24.9182C193.74 24.8597 193.813 24.8296 193.897 24.8296H196.848C196.932 24.8296 197.005 24.8597 197.063 24.9182C197.122 24.9784 197.152 25.0496 197.152 25.1335V32.7311C197.152 33.4086 197.334 33.9594 197.699 34.382C198.063 34.8062 198.567 35.0168 199.212 35.0168C199.789 35.0168 200.263 34.8426 200.637 34.496C201.01 34.1494 201.239 33.6951 201.323 33.1363V25.1335C201.323 25.0496 201.354 24.9768 201.412 24.9182L201.415 24.9198Z" fill="white"/>
<path d="M207.646 37.8026C207.586 37.744 207.557 37.6712 207.557 37.5858V20.4103C207.557 20.3265 207.587 20.2536 207.646 20.1951C207.704 20.1365 207.777 20.1064 207.861 20.1064H210.838C210.922 20.1064 210.995 20.1365 211.053 20.1951C211.112 20.2552 211.142 20.3265 211.142 20.4103V28.9735C211.142 29.0242 211.159 29.0542 211.193 29.0622C211.226 29.0717 211.261 29.059 211.294 29.0242L214.754 25.0101C214.873 24.8914 215 24.8328 215.136 24.8328H218.52C218.689 24.8328 218.773 24.893 218.773 25.0101C218.773 25.0607 218.748 25.1288 218.697 25.2143L215.466 29.3043C215.431 29.3724 215.423 29.431 215.44 29.4816L219.231 37.5367C219.264 37.6047 219.282 37.6554 219.282 37.6886C219.282 37.8248 219.188 37.8912 219.001 37.8912H215.873C215.703 37.8912 215.584 37.8153 215.516 37.6633L212.998 31.7182C212.98 31.6849 212.95 31.6628 212.909 31.6549C212.866 31.6469 212.836 31.6596 212.82 31.6928L211.193 33.7252C211.158 33.7933 211.142 33.8439 211.142 33.8772V37.5873C211.142 37.6728 211.112 37.744 211.053 37.8042C210.993 37.8643 210.922 37.8928 210.838 37.8928H207.861C207.776 37.8928 207.704 37.8628 207.646 37.8042V37.8026Z" fill="white"/>
<path d="M29.2868 54.0949C24.8983 54.0949 20.7745 52.9394 17.2037 50.9213V56.1621C20.8886 57.8352 24.9807 58.7675 29.2868 58.7675C40.7328 58.7675 50.6668 52.1749 55.4816 42.5908H50.1168C45.7568 49.4968 38.048 54.0949 29.2868 54.0949Z" fill="white"/>
<path d="M29.2869 4.9411C38.048 4.9411 45.7553 9.53768 50.1153 16.442H55.4816C50.6668 6.85951 40.7312 0.268555 29.2869 0.268555C13.137 0.268555 0 13.3887 0 29.5179C0 36.514 2.47399 42.9467 6.59624 47.9865V39.026C5.36163 36.0993 4.67854 32.8862 4.67854 29.5163C4.67854 15.964 15.7172 4.93952 29.2869 4.93952V4.9411Z" fill="white"/>
<path d="M44.5827 16.771C44.5827 16.771 44.5811 16.7678 44.5795 16.7678C40.9486 12.339 35.4348 9.50732 29.2696 9.50732C22.2217 9.50732 16.0217 13.208 12.5191 18.7685C12.4636 18.854 12.4082 18.9426 12.3559 19.0297C10.8883 21.377 9.90246 24.052 9.52685 26.9154C9.41432 27.7654 9.35727 28.6344 9.35727 29.5176C9.35727 30.4673 9.55538 44.1874 9.55538 44.1874V62.2523H14.2339V42.5491C14.2339 42.5491 14.226 42.0695 14.2133 41.2939C14.1943 40.0672 14.1626 38.0998 14.1309 36.1212C14.1103 34.8708 14.0913 33.6156 14.0754 32.5377C14.0739 32.4617 14.0739 32.3889 14.0723 32.3145C15.0676 31.9631 16.1183 31.7811 17.1865 31.7811C19.8349 31.7811 22.3215 32.878 24.1917 34.8644C26.0523 36.8461 27.0762 39.4752 27.0762 42.2705C27.0762 43.0446 26.9969 43.8075 26.8416 44.5482C22.9365 43.9183 19.5242 41.802 17.2056 38.7994V45.3333C20.5592 47.896 24.7496 49.4187 29.2886 49.4187C35.2715 49.4187 40.6474 46.7706 44.3053 42.5871C47.3625 39.0859 49.22 34.513 49.22 29.5128C49.22 24.5127 47.4782 20.2216 44.5858 16.7678L44.5827 16.771ZM29.2696 32.4553C27.7085 32.4553 26.4406 31.1875 26.4406 29.6316C26.4406 28.0756 27.7101 26.8062 29.2696 26.8062C30.8291 26.8062 32.097 28.074 32.097 29.6316C32.097 31.1891 30.8276 32.4553 29.2696 32.4553ZM37.1052 42.5887C35.56 43.5131 33.8356 44.1747 32.0004 44.5039C31.9005 44.5229 31.8023 44.5387 31.7024 44.5546C31.5471 43.8075 31.4647 43.0414 31.4647 42.2705C31.4647 39.4752 32.4901 36.8446 34.3507 34.8644C36.2209 32.878 38.7076 31.7811 41.3559 31.7811C42.3274 31.7811 43.2847 31.933 44.2007 32.2243C44.2308 32.2337 44.2625 32.2432 44.2926 32.2543C43.4923 36.6388 40.8059 40.3743 37.1068 42.5903L37.1052 42.5887ZM44.3719 27.9173C43.898 27.8825 43.3607 27.7733 42.7506 27.5944C41.4145 27.2019 39.8534 26.5086 38.1972 25.7758C35.2842 24.4842 31.9829 23.0216 29.3964 23.0216H29.3615C27.0825 23.0343 23.9793 24.4683 20.9807 25.8565C18.296 27.099 15.8711 28.2212 14.0802 28.3241C14.1151 27.8477 14.1753 27.376 14.2577 26.9154C15.4939 19.7515 21.7621 14.2843 29.2855 14.2843C32.1398 14.2843 34.8135 15.071 37.1005 16.4418C41.1213 18.8445 43.944 23.0454 44.4527 27.9253C44.4242 27.9237 44.3988 27.9221 44.3703 27.9189L44.3719 27.9173Z" fill="#1C75BC"/>
</g>
<defs>
<clipPath id="clip0_132_2103">
<rect width="219.282" height="61.9837" fill="white" transform="translate(0 0.268555)"/>
</clipPath>
</defs>
</svg>
