<svg width="50" height="51" viewBox="0 0 50 51" fill="none" xmlns="http://www.w3.org/2000/svg">
<rect x="0.551471" y="0.81856" width="48.8971" height="48.8971" rx="24.4485" stroke="#868686" stroke-width="1.10294"/>
<path d="M34.5703 34.0648C34.5703 34.3865 34.4363 34.5474 34.1682 34.5474H15.8318H15.7916C15.5235 34.5474 15.3895 34.4133 15.3895 34.1452V21.9612C15.3895 21.8272 15.4967 21.6931 15.7112 21.5591L18.9281 19.2268V16.7337C18.9281 16.6265 18.9683 16.526 19.0487 16.4321C19.1292 16.3383 19.223 16.2914 19.3302 16.2914H22.9492L24.7588 14.9644C24.9196 14.8572 25.0804 14.8572 25.2413 14.9644L27.091 16.2914H30.6698C30.7771 16.2914 30.8776 16.3316 30.9714 16.412C31.0652 16.4924 31.1122 16.5997 31.1122 16.7337V19.267L34.2486 21.5591C34.4631 21.7199 34.5703 21.854 34.5703 21.9612V34.0648ZM33.7661 22.7252L26.8497 27.7918L33.7661 33.3008V22.7252ZM33.4846 21.9612L31.1122 20.2321V23.6903L33.4846 21.9612ZM25 15.7686L24.236 16.2914H25.7238L25 15.7686ZM30.2677 17.1358H19.7323V24.3337L25 28.1538L30.2677 24.3337V17.1358ZM16.1937 22.7252V33.341L23.1101 27.7918L16.1937 22.7252ZM18.9281 23.7305V20.1919L16.4752 21.9612L18.9281 23.7305ZM16.9577 33.7833H33.0825L26.2064 28.2744L25.2413 28.958C25.0804 29.092 24.9196 29.092 24.7588 28.958L23.7937 28.2744L16.9577 33.7833ZM22.1852 19.9908V19.1866H27.855V19.9908H22.1852ZM22.1852 22.5644V21.7601H27.855V22.5644H22.1852ZM22.1852 25.0977V24.2935H27.855V25.0977H22.1852Z" fill="#868686"/>
</svg>
