<svg width="22" height="23" viewBox="0 0 22 23" fill="none" xmlns="http://www.w3.org/2000/svg">
<g clip-path="url(#clip0_527_1181)">
<path d="M14.71 14.5017L20.2932 20.1231C20.4207 20.2506 20.4844 20.4099 20.4844 20.6011C20.4844 20.7923 20.4207 20.9644 20.2932 21.1174C20.1657 21.2449 20.0128 21.3086 19.8343 21.3086C19.6304 21.3086 19.4646 21.2449 19.3372 21.1174L13.6775 15.4577C12.3263 16.452 10.8094 16.9491 9.12685 16.9491C7.01085 16.9491 5.21353 16.2034 3.73488 14.712C2.25623 13.2206 1.51691 11.4297 1.51691 9.33919C1.51691 7.24868 2.25623 5.45773 3.73488 3.96634C5.21353 2.47494 7.01085 1.72924 9.12685 1.72924C10.5035 1.72924 11.7782 2.06704 12.9509 2.74263C14.1237 3.41822 15.0478 4.34237 15.7234 5.51509C16.399 6.68782 16.7368 7.96251 16.7368 9.33919C16.7368 11.3277 16.0612 13.0486 14.71 14.5017ZM4.71002 4.94148C4.71002 4.94148 4.40728 5.24741 3.8018 5.85926C3.19632 6.47112 2.89358 7.63109 2.89358 9.33919C2.89358 11.0473 3.49906 12.5132 4.71002 13.7369C5.92099 14.9606 7.38689 15.5725 9.10773 15.5725C10.8286 15.5725 12.3008 14.967 13.5246 13.756C14.7483 12.5451 15.3601 11.0728 15.3601 9.33919C15.3601 8.21745 15.0797 7.17857 14.5188 6.22255C13.958 5.26653 13.1995 4.50808 12.2435 3.94722C11.2875 3.38635 10.2486 3.10592 9.12685 3.10592C7.39326 3.10592 5.92099 3.71777 4.71002 4.94148Z" fill="black"/>
</g>
<defs>
<clipPath id="clip0_527_1181">
<rect width="20" height="20" fill="white" transform="matrix(1 0 0 -1 1 21.5)"/>
</clipPath>
</defs>
</svg>
